# xmcd
#
# Track frame offsets:
# 155
# 47265
# 76310
# 82310
# 113447
# 169757
# 242092
#
# Disc length: 3666 seconds
#
# Revision: 0
# Processed by: cddbd v1.5.1PL2 Copyright (c) Steve Scherf et al.
# Submitted via: Audion 3.0.2 (http://www.panic.com/audion/)
#
DISCID=490e5007
DTITLE=Beethoven - Spring Sonata-Kreutzer Sonata
DYEAR=1900
DGENRE=
TTITLE0=Spring Allegro
TTITLE1=Adagio molto espressivo
TTITLE2=Scherzo 
TTITLE3=Rondo
TTITLE4=Kreutzer Adagio sostenuto-Presto
TTITLE5=Andante zariazione 1-4
TTITLE6=Finale
EXTD=
EXTT0=
EXTT1=
EXTT2=
EXTT3=
EXTT4=
EXTT5=
EXTT6=
PLAYORDER=
